<mxfile host="65bd71144e">
    <diagram id="r4zD2RTh39KhqekE0IoL" name="Page-1">
        <mxGraphModel dx="804" dy="489" grid="1" gridSize="10" guides="1" tooltips="1" connect="1" arrows="1" fold="1" page="1" pageScale="1" pageWidth="827" pageHeight="1169" math="0" shadow="0">
            <root>
                <mxCell id="0"/>
                <mxCell id="1" parent="0"/>
                <mxCell id="8" style="edgeStyle=none;html=1;entryX=1;entryY=0.5;entryDx=0;entryDy=0;endArrow=none;endFill=0;endSize=20;startArrow=diamondThin;startFill=0;targetPerimeterSpacing=20;sourcePerimeterSpacing=0;startSize=20;exitX=0;exitY=0.5;exitDx=0;exitDy=0;" parent="1" source="3" target="2" edge="1">
                    <mxGeometry relative="1" as="geometry">
                        <mxPoint x="200" y="160" as="sourcePoint"/>
                    </mxGeometry>
                </mxCell>
                <mxCell id="2" value="Avión" style="html=1;" parent="1" vertex="1">
                    <mxGeometry x="50" y="70" width="110" height="50" as="geometry"/>
                </mxCell>
                <mxCell id="3" value="Aeropuerto" style="html=1;" parent="1" vertex="1">
                    <mxGeometry x="290" y="70" width="110" height="50" as="geometry"/>
                </mxCell>
                <mxCell id="4" value="Continente" style="html=1;" parent="1" vertex="1">
                    <mxGeometry x="50" y="160" width="110" height="50" as="geometry"/>
                </mxCell>
                <mxCell id="10" style="edgeStyle=none;html=1;entryX=0;entryY=0.5;entryDx=0;entryDy=0;endArrow=none;endFill=0;endSize=20;startArrow=diamondThin;startFill=1;targetPerimeterSpacing=0;sourcePerimeterSpacing=0;startSize=20;exitX=1;exitY=0.5;exitDx=0;exitDy=0;" parent="1" source="4" target="5" edge="1">
                    <mxGeometry relative="1" as="geometry">
                        <mxPoint x="180" y="140" as="sourcePoint"/>
                    </mxGeometry>
                </mxCell>
                <mxCell id="5" value="País" style="html=1;" parent="1" vertex="1">
                    <mxGeometry x="290" y="160" width="110" height="50" as="geometry"/>
                </mxCell>
                <mxCell id="11" style="edgeStyle=none;html=1;startArrow=none;startFill=0;endArrow=diamondThin;endFill=0;startSize=20;endSize=20;sourcePerimeterSpacing=0;targetPerimeterSpacing=0;exitX=-0.011;exitY=0.579;exitDx=0;exitDy=0;exitPerimeter=0;entryX=0.999;entryY=0.587;entryDx=0;entryDy=0;entryPerimeter=0;" parent="1" source="7" target="6" edge="1">
                    <mxGeometry relative="1" as="geometry">
                        <mxPoint x="270" y="230" as="targetPoint"/>
                    </mxGeometry>
                </mxCell>
                <mxCell id="6" value="Molécula" style="html=1;" parent="1" vertex="1">
                    <mxGeometry x="50" y="250" width="110" height="50" as="geometry"/>
                </mxCell>
                <mxCell id="7" value="Átomo" style="html=1;" parent="1" vertex="1">
                    <mxGeometry x="290" y="250" width="110" height="50" as="geometry"/>
                </mxCell>
                <mxCell id="12" style="edgeStyle=none;html=1;startArrow=none;startFill=0;endArrow=diamondThin;endFill=1;startSize=20;endSize=20;sourcePerimeterSpacing=0;targetPerimeterSpacing=0;exitX=0;exitY=0.5;exitDx=0;exitDy=0;entryX=1;entryY=0.5;entryDx=0;entryDy=0;" parent="1" source="14" target="13" edge="1">
                    <mxGeometry relative="1" as="geometry">
                        <mxPoint x="230" y="310" as="targetPoint"/>
                    </mxGeometry>
                </mxCell>
                <mxCell id="13" value="Colmena" style="html=1;" parent="1" vertex="1">
                    <mxGeometry x="50" y="350" width="110" height="50" as="geometry"/>
                </mxCell>
                <mxCell id="14" value="Abeja" style="html=1;" parent="1" vertex="1">
                    <mxGeometry x="290" y="350" width="110" height="50" as="geometry"/>
                </mxCell>
                <mxCell id="15" style="edgeStyle=none;html=1;entryX=0;entryY=0.5;entryDx=0;entryDy=0;startArrow=none;startFill=0;endArrow=diamondThin;endFill=1;startSize=20;endSize=20;sourcePerimeterSpacing=0;targetPerimeterSpacing=0;" parent="1" source="16" target="17" edge="1">
                    <mxGeometry relative="1" as="geometry"/>
                </mxCell>
                <mxCell id="16" value="Muñeca rusa" style="html=1;" parent="1" vertex="1">
                    <mxGeometry x="50" y="450" width="110" height="50" as="geometry"/>
                </mxCell>
                <mxCell id="17" value="Muñeca rusa" style="html=1;" parent="1" vertex="1">
                    <mxGeometry x="290" y="450" width="110" height="50" as="geometry"/>
                </mxCell>
            </root>
        </mxGraphModel>
    </diagram>
</mxfile>
